<svg width="85" height="92" viewBox="0 0 85 92" fill="none" xmlns="http://www.w3.org/2000/svg">
<g opacity="0.04">
<path fill-rule="evenodd" clip-rule="evenodd" d="M26.5796 84.2109C26.5796 80.4344 29.6368 77.3772 33.4133 77.3772C37.1449 77.3772 40.2021 80.4344 40.2021 84.2109C40.2021 87.9425 37.1449 90.9997 33.4133 90.9997C29.6368 90.9997 26.5796 87.9425 26.5796 84.2109ZM77.1596 84.2112C77.1596 80.4346 80.2168 77.3774 83.9934 77.3774C87.725 77.3774 90.7822 80.4346 90.7822 84.2112C90.7822 87.9427 87.725 90.9999 83.9934 90.9999C80.2168 90.9999 77.1596 87.9427 77.1596 84.2112Z" fill="#374FA2"/>
<path fill-rule="evenodd" clip-rule="evenodd" d="M90.7833 18.3061C93.5258 18.3061 95.3242 19.2502 97.1225 21.3184C98.9209 23.3865 99.2356 26.3537 98.8309 29.0468L94.5599 58.5397C93.7506 64.209 88.8951 68.3857 83.1853 68.3857H34.1353C28.1558 68.3857 23.2103 63.7999 22.7158 57.8698L18.5796 8.86028L11.7908 7.69135C9.99243 7.37664 8.73358 5.62325 9.0483 3.8249C9.36301 1.98159 11.1164 0.7677 12.9597 1.03745L23.6824 2.65597C25.211 2.93022 26.3349 4.18457 26.4698 5.71316L27.324 15.7839C27.4589 17.2271 28.6278 18.3061 30.0665 18.3061H90.7833ZM63.5388 41.6807H75.9924C77.8807 41.6807 79.3643 40.1521 79.3643 38.3088C79.3643 36.4206 77.8807 34.9369 75.9924 34.9369H63.5388C61.6506 34.9369 60.1669 36.4206 60.1669 38.3088C60.1669 40.1521 61.6506 41.6807 63.5388 41.6807Z" fill="#374FA2"/>
</g>
</svg>
