<svg width="40" height="40" viewBox="0 0 40 40" fill="none" xmlns="http://www.w3.org/2000/svg">
<path fill-rule="evenodd" clip-rule="evenodd" d="M7.81323 36.9825C7.81323 35.3041 9.17199 33.9453 10.8504 33.9453C12.5089 33.9453 13.8677 35.3041 13.8677 36.9825C13.8677 38.641 12.5089 39.9998 10.8504 39.9998C9.17199 39.9998 7.81323 38.641 7.81323 36.9825ZM30.2933 36.9826C30.2933 35.3042 31.652 33.9454 33.3305 33.9454C34.989 33.9454 36.3477 35.3042 36.3477 36.9826C36.3477 38.6411 34.989 39.9999 33.3305 39.9999C31.652 39.9999 30.2933 38.6411 30.2933 36.9826Z" fill="#06DAF7"/>
<path fill-rule="evenodd" clip-rule="evenodd" d="M36.3481 7.69161C37.567 7.69161 38.3663 8.11122 39.1656 9.03038C39.9648 9.94954 40.1047 11.2683 39.9249 12.4652L38.0266 25.5732C37.6669 28.0929 35.5089 29.9492 32.9712 29.9492H11.1712C8.51368 29.9492 6.31569 27.9111 6.09589 25.2755L4.25758 3.49346L1.24035 2.97393C0.44108 2.83406 -0.118407 2.05478 0.0214646 1.25551C0.161336 0.436261 0.940622 -0.103244 1.75987 0.0166457L6.5255 0.735986C7.20488 0.857874 7.70442 1.41536 7.76436 2.09474L8.14401 6.57064C8.20396 7.21205 8.72348 7.69161 9.3629 7.69161H36.3481ZM24.2395 18.0803H29.7744C30.6136 18.0803 31.273 17.401 31.273 16.5817C31.273 15.7425 30.6136 15.0831 29.7744 15.0831H24.2395C23.4003 15.0831 22.7409 15.7425 22.7409 16.5817C22.7409 17.401 23.4003 18.0803 24.2395 18.0803Z" fill="#374FA2"/>
</svg>
