<svg width="20" height="20" viewBox="0 0 20 20" fill="none" xmlns="http://www.w3.org/2000/svg">
<path d="M17.7759 6.20213C17.4268 5.98216 16.9976 5.9627 16.6318 6.14883L15.3967 6.77235C14.9401 7.00247 14.6567 7.46778 14.6567 7.98555V12.8468C14.6567 13.3646 14.9401 13.829 15.3967 14.0608L16.6309 14.6835C16.7984 14.7698 16.9776 14.8113 17.1568 14.8113C17.3718 14.8113 17.5851 14.7504 17.7759 14.6311C18.1251 14.4119 18.3334 14.0321 18.3334 13.6158V7.2182C18.3334 6.80196 18.1251 6.42209 17.7759 6.20213Z" fill="#06DAF7"/>
<path d="M9.92075 16.6667H5.09404C3.07568 16.6667 1.6665 15.275 1.6665 13.2827V7.55084C1.6665 5.55761 3.07568 4.16675 5.09404 4.16675H9.92075C11.9391 4.16675 13.3483 5.55761 13.3483 7.55084V13.2827C13.3483 15.275 11.9391 16.6667 9.92075 16.6667Z" fill="#374FA2"/>
<circle opacity="0.2" cx="13.3696" cy="13.3332" r="5.55512" fill="#3ED25E"/>
<circle cx="13.3698" cy="13.3335" r="2.77756" fill="#3ED25E"/>
</svg>
