<svg width="20" height="20" viewBox="0 0 20 20" fill="none" xmlns="http://www.w3.org/2000/svg">
<path d="M15.5832 13.0834C15.4165 13.2501 15.2498 13.3334 14.9998 13.3334C14.7498 13.3334 14.5832 13.2501 14.4165 13.0834L9.99984 8.66675L5.58317 13.0834C5.24984 13.4167 4.74984 13.4167 4.4165 13.0834C4.08317 12.7501 4.08317 12.2501 4.4165 11.9167L9.4165 6.91675C9.74984 6.58341 10.2498 6.58341 10.5832 6.91675L15.5832 11.9167C15.9165 12.2501 15.9165 12.7501 15.5832 13.0834Z" fill="black"/>
<mask id="mask0_41_22003" style="mask-type:alpha" maskUnits="userSpaceOnUse" x="4" y="6" width="12" height="8">
<path d="M15.5832 13.0834C15.4165 13.2501 15.2498 13.3334 14.9998 13.3334C14.7498 13.3334 14.5832 13.2501 14.4165 13.0834L9.99984 8.66675L5.58317 13.0834C5.24984 13.4167 4.74984 13.4167 4.4165 13.0834C4.08317 12.7501 4.08317 12.2501 4.4165 11.9167L9.4165 6.91675C9.74984 6.58341 10.2498 6.58341 10.5832 6.91675L15.5832 11.9167C15.9165 12.2501 15.9165 12.7501 15.5832 13.0834Z" fill="white"/>
</mask>
<g mask="url(#mask0_41_22003)">
<rect width="20" height="20" fill="#474747"/>
</g>
</svg>
