<svg width="12" height="12" viewBox="0 0 12 12" fill="none" xmlns="http://www.w3.org/2000/svg">
<path d="M11.7088 4.93851L6.7115 0.263549C6.3355 -0.0878487 5.67016 -0.0878487 5.29283 0.263549L0.295498 4.93851C-0.0938358 5.30357 -0.0925021 5.89337 0.299498 6.25594C0.691498 6.61852 1.3235 6.61852 1.71416 6.25346L5.0035 3.17779L5.0035 11.0687C5.0035 11.584 5.4515 12 6.0035 12C6.5555 12 7.0035 11.584 7.0035 11.0687L7.0035 3.17779L10.2915 6.25346C10.4875 6.43599 10.7435 6.52663 11.0008 6.52663C11.2555 6.52663 11.5115 6.43599 11.7062 6.25594C12.0968 5.89337 12.0982 5.30357 11.7088 4.93851Z" fill="#142245"/>
</svg>
