<svg width="20" height="20" viewBox="0 0 20 20" fill="none" xmlns="http://www.w3.org/2000/svg">
<path d="M18.8239 18H12.1761C11.5275 18 11 18.4485 11 19C11 19.5525 11.5275 20 12.1761 20H18.8239C19.4725 20 20 19.5525 20 19C20 18.4485 19.4725 18 18.8239 18Z" fill="#06DAF7"/>
<path d="M8.12114 4.33753L14.1165 9.18208C14.2612 9.29793 14.2859 9.51054 14.173 9.65865L7.06527 18.9201C6.61847 19.4923 5.96002 19.8159 5.25454 19.8279L1.3744 19.8757C1.16746 19.8781 0.986387 19.7347 0.939355 19.5293L0.0575053 15.6952C-0.0953486 14.9905 0.0575052 14.2619 0.504309 13.7005L7.64729 4.39486C7.76252 4.24556 7.97534 4.21928 8.12114 4.33753Z" fill="#374FA2"/>
<path d="M16.8003 6.29493L15.6445 7.73778C15.5281 7.8847 15.3188 7.90859 15.1741 7.79153C13.7691 6.65445 10.1711 3.7365 9.17286 2.92788C9.02706 2.80844 9.00708 2.59583 9.12466 2.44772L10.2393 1.0634C11.2505 -0.238515 13.0142 -0.357956 14.4369 0.776737L16.0713 2.07865C16.7415 2.60419 17.1883 3.29695 17.3411 4.02554C17.5175 4.827 17.3294 5.61412 16.8003 6.29493Z" fill="#06DAF7"/>
</svg>
