<svg width="85" height="92" viewBox="0 0 85 92" fill="none" xmlns="http://www.w3.org/2000/svg">
<g opacity="0.04">
<path d="M82.6827 11.5482C86.7566 15.2284 89.3323 20.5361 89.3323 26.4584C89.3323 28.3207 89.078 30.1234 88.6042 31.8349C88.4058 32.5516 88.1689 33.2523 87.8956 33.9345L87.3458 35.1833L70.6277 66.0799V90.0225L99.0001 72.9904V1L82.6827 11.5482Z" fill="white"/>
<path d="M37.5974 1.67212L9 16.2411V91.0001L37.5974 73.1731V1.67212Z" fill="white"/>
<path d="M51.1206 35.2312L50.5109 33.8454C50.2526 33.1915 50.0285 32.5206 49.8386 31.8351C49.3649 30.1236 49.1107 28.3211 49.1107 26.4586C49.1107 20.6332 51.6024 15.4024 55.5604 11.7297L40.4099 1.96265V73.1774L67.8153 90.2615V66.0805L51.1206 35.2312Z" fill="white"/>
<path d="M69.2215 20.1912C65.8659 20.1912 63.136 22.9211 63.136 26.2766C63.136 29.6322 65.8659 32.3621 69.2215 32.3621C72.577 32.3621 75.3069 29.6322 75.3069 26.2766C75.3067 22.9211 72.577 20.1912 69.2215 20.1912Z" fill="white"/>
<mask id="path-5-outside-1_115_3096" maskUnits="userSpaceOnUse" x="47" y="5" width="45" height="52" fill="black">
<rect fill="white" x="47" y="5" width="45" height="52"/>
<path fill-rule="evenodd" clip-rule="evenodd" d="M59.649 10.4797C65.6183 7.11926 72.9557 7.17799 78.869 10.6335C84.7243 14.1595 88.2829 20.4522 88.2498 27.2215C88.1135 33.9463 84.2976 40.2676 79.5277 45.1544C76.7747 47.9875 73.695 50.4928 70.3514 52.6189C70.0071 52.8118 69.6299 52.941 69.2385 53C68.8617 52.9845 68.4948 52.8766 68.1709 52.6862C63.0663 49.4915 58.5881 45.4136 54.9516 40.6487C51.9087 36.6713 50.1799 31.8659 50 26.8852C49.996 20.103 53.6796 13.8401 59.649 10.4797ZM63.096 29.692C64.1001 32.0903 66.4703 33.6548 69.0998 33.6548C70.8224 33.6668 72.4783 32.9983 73.6986 31.7982C74.9188 30.5982 75.602 28.9663 75.5959 27.2662C75.6051 24.6712 74.0282 22.3266 71.6015 21.3272C69.1748 20.3279 66.377 20.8708 64.5144 22.7026C62.6518 24.5343 62.0919 27.2936 63.096 29.692Z"/>
</mask>
<path fill-rule="evenodd" clip-rule="evenodd" d="M59.649 10.4797C65.6183 7.11926 72.9557 7.17799 78.869 10.6335C84.7243 14.1595 88.2829 20.4522 88.2498 27.2215C88.1135 33.9463 84.2976 40.2676 79.5277 45.1544C76.7747 47.9875 73.695 50.4928 70.3514 52.6189C70.0071 52.8118 69.6299 52.941 69.2385 53C68.8617 52.9845 68.4948 52.8766 68.1709 52.6862C63.0663 49.4915 58.5881 45.4136 54.9516 40.6487C51.9087 36.6713 50.1799 31.8659 50 26.8852C49.996 20.103 53.6796 13.8401 59.649 10.4797ZM63.096 29.692C64.1001 32.0903 66.4703 33.6548 69.0998 33.6548C70.8224 33.6668 72.4783 32.9983 73.6986 31.7982C74.9188 30.5982 75.602 28.9663 75.5959 27.2662C75.6051 24.6712 74.0282 22.3266 71.6015 21.3272C69.1748 20.3279 66.377 20.8708 64.5144 22.7026C62.6518 24.5343 62.0919 27.2936 63.096 29.692Z" fill="white"/>
<path d="M78.869 10.6335L80.4166 8.06355L80.3997 8.05335L80.3826 8.04337L78.869 10.6335ZM59.649 10.4797L58.1773 7.86546L58.1773 7.86546L59.649 10.4797ZM88.2498 27.2215L91.2492 27.2823L91.2496 27.2592L91.2497 27.2362L88.2498 27.2215ZM79.5277 45.1544L77.3809 43.0589L77.3762 43.0637L79.5277 45.1544ZM70.3514 52.6189L71.8177 55.2362L71.8906 55.1953L71.9612 55.1504L70.3514 52.6189ZM69.2385 53L69.1148 55.9975L69.4017 56.0093L69.6857 55.9665L69.2385 53ZM68.1709 52.6862L66.5794 55.2292L66.6147 55.2513L66.6505 55.2724L68.1709 52.6862ZM54.9516 40.6487L57.3364 38.8287L57.3343 38.8259L54.9516 40.6487ZM50 26.8852L47 26.887L47 26.9403L47.002 26.9935L50 26.8852ZM69.0998 33.6548L69.1206 30.6549L69.1102 30.6548L69.0998 30.6548L69.0998 33.6548ZM63.096 29.692L60.3288 30.8505L60.3288 30.8505L63.096 29.692ZM73.6986 31.7982L75.8021 33.9372L75.8021 33.9372L73.6986 31.7982ZM75.5959 27.2662L72.5959 27.2556L72.5958 27.2663L72.5959 27.277L75.5959 27.2662ZM71.6015 21.3272L70.4591 24.1012L70.4591 24.1012L71.6015 21.3272ZM64.5144 22.7026L62.4109 20.5636L62.4109 20.5636L64.5144 22.7026ZM80.3826 8.04337C73.5489 4.04998 65.0752 3.98233 58.1773 7.86546L61.1206 13.0939C66.1615 10.2562 72.3625 10.306 77.3554 13.2237L80.3826 8.04337ZM91.2497 27.2362C91.2881 19.397 87.1668 12.1284 80.4166 8.06355L77.3214 13.2035C82.2817 16.1906 85.2777 21.5074 85.2498 27.2068L91.2497 27.2362ZM81.6746 47.2499C86.7111 42.0899 91.0911 35.079 91.2492 27.2823L85.2504 27.1607C85.1358 32.8136 81.884 38.4454 77.3809 43.0589L81.6746 47.2499ZM71.9612 55.1504C75.5013 52.8993 78.7629 50.2462 81.6793 47.245L77.3762 43.0637C74.7865 45.7288 71.8886 48.0862 68.7416 50.0874L71.9612 55.1504ZM69.6857 55.9665C70.434 55.8537 71.1566 55.6066 71.8177 55.2362L68.8852 50.0017C68.8576 50.0171 68.8257 50.0283 68.7912 50.0335L69.6857 55.9665ZM66.6505 55.2724C67.4007 55.7134 68.2475 55.9617 69.1148 55.9975L69.3621 50.0025C69.4759 50.0072 69.589 50.0398 69.6913 50.1L66.6505 55.2724ZM52.5668 42.4688C56.4231 47.5218 61.1705 51.8441 66.5794 55.2292L69.7625 50.1431C64.9622 47.1389 60.7531 43.3055 57.3364 38.8287L52.5668 42.4688ZM47.002 26.9935C47.2044 32.5989 49.15 38.0027 52.5689 42.4716L57.3343 38.8259C54.6673 35.3398 53.1554 31.1329 52.998 26.777L47.002 26.9935ZM58.1773 7.86546C51.275 11.751 46.9954 19.0072 47 26.887L53 26.8835C52.9967 21.1988 56.0841 15.9292 61.1206 13.0939L58.1773 7.86546ZM69.0998 30.6548C67.6615 30.6548 66.3935 29.7998 65.8633 28.5334L60.3288 30.8505C61.8068 34.3809 65.279 36.6548 69.0997 36.6548L69.0998 30.6548ZM71.595 29.6593C70.9452 30.2983 70.0549 30.6614 69.1206 30.6549L69.0789 36.6547C71.5899 36.6722 74.0114 35.6982 75.8021 33.9372L71.595 29.6593ZM72.5959 27.277C72.5991 28.1629 72.2435 29.0215 71.595 29.6593L75.8021 33.9372C77.5941 32.1748 78.6049 29.7696 78.5958 27.2554L72.5959 27.277ZM70.4591 24.1012C71.7751 24.6432 72.6007 25.8982 72.5959 27.2556L78.5959 27.2768C78.6094 23.4441 76.2813 20.01 72.7439 18.5533L70.4591 24.1012ZM66.618 24.8415C67.6183 23.8577 69.1372 23.5568 70.4591 24.1012L72.7439 18.5533C69.2124 17.0989 65.1357 17.8839 62.4109 20.5636L66.618 24.8415ZM65.8633 28.5334C65.3358 27.2736 65.6245 25.8186 66.618 24.8415L62.4109 20.5636C59.6792 23.2501 58.8479 27.3135 60.3288 30.8505L65.8633 28.5334Z" fill="#374FA2" mask="url(#path-5-outside-1_115_3096)"/>
</g>
</svg>
