<svg width="48" height="48" viewBox="0 0 48 48" fill="none" xmlns="http://www.w3.org/2000/svg">
<path d="M36.7479 8.68808C38.5585 10.3238 39.7033 12.6827 39.7033 15.3149C39.7033 16.1425 39.5903 16.9438 39.3797 17.7044C39.2915 18.0229 39.1862 18.3344 39.0647 18.6376L38.8204 19.1926L31.3901 32.9244V43.5656L44.0001 35.9958V4L36.7479 8.68808Z" fill="white"/>
<path d="M16.71 4.29858L4 10.7737V43.9999L16.71 36.0768V4.29858Z" fill="white"/>
<path d="M22.7203 19.2138L22.4493 18.5979C22.3345 18.3072 22.2349 18.009 22.1505 17.7044C21.94 16.9437 21.827 16.1426 21.827 15.3148C21.827 12.7258 22.9344 10.401 24.6935 8.76863L17.96 4.42773V36.0788L30.1401 43.6717V32.9245L22.7203 19.2138Z" fill="white"/>
<path d="M30.7652 12.5293C29.2739 12.5293 28.0605 13.7426 28.0605 15.234C28.0605 16.7253 29.2739 17.9386 30.7652 17.9386C32.2565 17.9386 33.4699 16.7253 33.4699 15.234C33.4698 13.7426 32.2565 12.5293 30.7652 12.5293Z" fill="white"/>
<mask id="path-5-outside-1_115_3109" maskUnits="userSpaceOnUse" x="19" y="6" width="23" height="27" fill="black">
<rect fill="white" x="19" y="6" width="23" height="27"/>
<path fill-rule="evenodd" clip-rule="evenodd" d="M26.2884 10.1021C28.9415 8.60856 32.2025 8.63466 34.8307 10.1705C37.433 11.7375 39.0146 14.5343 38.9999 17.5429C38.9393 20.5317 37.2434 23.3412 35.1234 25.5131C33.8999 26.7722 32.5311 27.8857 31.0451 28.8306C30.892 28.9164 30.7244 28.9738 30.5504 29C30.383 28.9931 30.2199 28.9452 30.076 28.8605C27.8073 27.4407 25.8169 25.6283 24.2007 23.5105C22.8483 21.7428 22.0799 19.6071 22 17.3934C21.9982 14.3791 23.6354 11.5956 26.2884 10.1021ZM27.8214 18.6408C28.2676 19.7067 29.321 20.402 30.4897 20.402C31.2553 20.4074 31.9913 20.1103 32.5336 19.5769C33.0759 19.0435 33.3796 18.3183 33.3769 17.5627C33.3809 16.4093 32.6801 15.3673 31.6016 14.9231C30.5231 14.479 29.2796 14.7203 28.4518 15.5344C27.624 16.3485 27.3751 17.5748 27.8214 18.6408Z"/>
</mask>
<path fill-rule="evenodd" clip-rule="evenodd" d="M26.2884 10.1021C28.9415 8.60856 32.2025 8.63466 34.8307 10.1705C37.433 11.7375 39.0146 14.5343 38.9999 17.5429C38.9393 20.5317 37.2434 23.3412 35.1234 25.5131C33.8999 26.7722 32.5311 27.8857 31.0451 28.8306C30.892 28.9164 30.7244 28.9738 30.5504 29C30.383 28.9931 30.2199 28.9452 30.076 28.8605C27.8073 27.4407 25.8169 25.6283 24.2007 23.5105C22.8483 21.7428 22.0799 19.6071 22 17.3934C21.9982 14.3791 23.6354 11.5956 26.2884 10.1021ZM27.8214 18.6408C28.2676 19.7067 29.321 20.402 30.4897 20.402C31.2553 20.4074 31.9913 20.1103 32.5336 19.5769C33.0759 19.0435 33.3796 18.3183 33.3769 17.5627C33.3809 16.4093 32.6801 15.3673 31.6016 14.9231C30.5231 14.479 29.2796 14.7203 28.4518 15.5344C27.624 16.3485 27.3751 17.5748 27.8214 18.6408Z" fill="#06DAF7"/>
<path d="M34.8307 10.1705L36.3783 7.60047L36.3614 7.59027L36.3443 7.58029L34.8307 10.1705ZM26.2884 10.1021L24.8168 7.48785H24.8168L26.2884 10.1021ZM38.9999 17.5429L41.9993 17.6037L41.9998 17.5806L41.9999 17.5576L38.9999 17.5429ZM35.1234 25.5131L32.9766 23.4175L32.9719 23.4224L35.1234 25.5131ZM31.0451 28.8306L32.5113 31.4479L32.5843 31.407L32.6549 31.3622L31.0451 28.8306ZM30.5504 29L30.4268 31.9975L30.7137 32.0093L30.9976 31.9665L30.5504 29ZM30.076 28.8605L28.4844 31.4035L28.5197 31.4256L28.5556 31.4467L30.076 28.8605ZM24.2007 23.5105L26.5855 21.6905L26.5834 21.6877L24.2007 23.5105ZM22 17.3934L19 17.3952L19 17.4485L19.002 17.5017L22 17.3934ZM30.4897 20.402L30.5106 17.4021L30.5001 17.402H30.4897L30.4897 20.402ZM27.8214 18.6408L30.5886 17.4822V17.4822L27.8214 18.6408ZM32.5336 19.5769L34.6371 21.7158L34.6372 21.7158L32.5336 19.5769ZM33.3769 17.5627L30.3769 17.552L30.3768 17.5627L30.3769 17.5734L33.3769 17.5627ZM31.6016 14.9231L30.4592 17.6971V17.6971L31.6016 14.9231ZM28.4518 15.5344L30.5553 17.6733V17.6733L28.4518 15.5344ZM36.3443 7.58029C32.7957 5.50665 28.3983 5.47163 24.8168 7.48785L27.7601 12.7163C29.4846 11.7455 31.6093 11.7627 33.3171 12.7606L36.3443 7.58029ZM41.9999 17.5576C42.0198 13.4791 39.8756 9.70646 36.3783 7.60047L33.2831 12.7405C34.9905 13.7686 36.0094 15.5895 35.9999 17.5282L41.9999 17.5576ZM37.2703 27.6085C39.6569 25.1634 41.917 21.6644 41.9993 17.6037L36.0005 17.4821C35.9617 19.399 34.8298 21.5189 32.9766 23.4176L37.2703 27.6085ZM32.6549 31.3622C34.3374 30.2922 35.8881 29.031 37.275 27.6037L32.9719 23.4224C31.9116 24.5135 30.7248 25.4791 29.4353 26.2991L32.6549 31.3622ZM30.9976 31.9665C31.5285 31.8864 32.0415 31.7111 32.5113 31.4479L29.5788 26.2134C29.7425 26.1217 29.9203 26.0611 30.1032 26.0335L30.9976 31.9665ZM28.5556 31.4467C29.1258 31.782 29.7688 31.9703 30.4268 31.9975L30.6741 26.0025C30.9972 26.0159 31.3141 26.1084 31.5963 26.2743L28.5556 31.4467ZM21.8159 25.3306C23.652 27.7364 25.9114 29.7933 28.4844 31.4035L31.6675 26.3175C29.7031 25.0881 27.9819 23.5201 26.5855 21.6905L21.8159 25.3306ZM19.002 17.5017C19.1045 20.34 20.0897 23.0743 21.818 25.3334L26.5834 21.6877C25.6069 20.4113 25.0554 18.8741 24.998 17.2852L19.002 17.5017ZM24.8168 7.48785C21.2308 9.50653 18.9976 13.2833 19 17.3952L25 17.3917C24.9989 15.4749 26.0399 13.6847 27.7601 12.7163L24.8168 7.48785ZM30.4897 17.402C30.5123 17.402 30.561 17.4162 30.5886 17.4822L25.0541 19.7993C25.9743 21.9972 28.1298 23.402 30.4897 23.402L30.4897 17.402ZM30.4301 17.4379C30.4581 17.4103 30.4878 17.402 30.5106 17.4021L30.4688 23.402C32.0228 23.4128 33.5244 22.8102 34.6371 21.7158L30.4301 17.4379ZM30.3769 17.5734C30.3767 17.5149 30.4006 17.4669 30.4301 17.438L34.6372 21.7158C35.7513 20.6202 36.3825 19.1216 36.3768 17.5519L30.3769 17.5734ZM30.4592 17.6971C30.427 17.6839 30.3766 17.6363 30.3769 17.552L36.3768 17.5733C36.3853 15.1823 34.9332 13.0507 32.744 12.1492L30.4592 17.6971ZM30.5553 17.6733C30.5369 17.6915 30.5171 17.6995 30.5042 17.702C30.4914 17.7044 30.4751 17.7036 30.4592 17.6971L32.744 12.1492C30.5607 11.25 28.0383 11.7334 26.3482 13.3954L30.5553 17.6733ZM30.5886 17.4822C30.619 17.5549 30.5966 17.6328 30.5553 17.6733L26.3482 13.3954C24.6513 15.0643 24.1311 17.5948 25.0541 19.7993L30.5886 17.4822Z" fill="white" mask="url(#path-5-outside-1_115_3109)"/>
</svg>
