<svg width="24" height="24" viewBox="0 0 24 24" fill="none" xmlns="http://www.w3.org/2000/svg">
<circle cx="19.5" cy="4.5" r="2.5" fill="#06DAF7"/>
<path fill-rule="evenodd" clip-rule="evenodd" d="M19.5 9C19.669 9 19.8358 8.99069 19.9999 8.97254L20 9V17C20 19.7614 17.7614 22 15 22H7C4.23858 22 2 19.7614 2 17V9C2 6.23858 4.23858 4 7 4H15L15.0275 4.00007C15.0093 4.16422 15 4.33102 15 4.5C15 6.98528 17.0147 9 19.5 9ZM10.2071 10.7929C9.81658 10.4024 9.18342 10.4024 8.79289 10.7929L5.79289 13.7929C5.40237 14.1834 5.40237 14.8166 5.79289 15.2071C6.18342 15.5976 6.81658 15.5976 7.20711 15.2071L9.5 12.9142L11.7929 15.2071C12.1834 15.5976 12.8166 15.5976 13.2071 15.2071L16.2071 12.2071C16.5976 11.8166 16.5976 11.1834 16.2071 10.7929C15.8166 10.4024 15.1834 10.4024 14.7929 10.7929L12.5 13.0858L10.2071 10.7929Z" fill="#374FA2"/>
</svg>
