<svg width="24" height="24" viewBox="0 0 24 24" fill="none" xmlns="http://www.w3.org/2000/svg">
<path d="M12 2C9.38306 2.00689 6.87274 3.03768 5.0061 4.87183V3C5.0061 2.73478 4.90074 2.48043 4.71321 2.29289C4.52567 2.10536 4.27132 2 4.0061 2C3.74088 2 3.48653 2.10536 3.29899 2.29289C3.11146 2.48043 3.0061 2.73478 3.0061 3V7.5C3.00607 7.63133 3.03191 7.76138 3.08215 7.88272C3.13239 8.00407 3.20605 8.11432 3.29892 8.20718C3.39178 8.30005 3.50204 8.37371 3.62338 8.42395C3.74472 8.47419 3.87477 8.50003 4.0061 8.5H8.5061C8.77132 8.5 9.02567 8.39464 9.21321 8.20711C9.40074 8.01957 9.5061 7.76522 9.5061 7.5C9.5061 7.23478 9.40074 6.98043 9.21321 6.79289C9.02567 6.60536 8.77132 6.5 8.5061 6.5H6.21844C7.5014 5.16135 9.21051 4.31131 11.0521 4.09591C12.8938 3.88052 14.7529 4.31322 16.3101 5.31968C17.8674 6.32614 19.0255 7.84352 19.5855 9.6111C20.1455 11.3787 20.0724 13.2861 19.3788 15.0057C18.6852 16.7253 17.4144 18.1496 15.7848 19.034C14.1551 19.9183 12.2683 20.2075 10.4485 19.8519C8.6288 19.4962 6.98973 18.5179 5.81294 17.085C4.63616 15.6521 3.99513 13.8542 4 12C4 11.7348 3.89464 11.4804 3.70711 11.2929C3.51957 11.1054 3.26522 11 3 11C2.73478 11 2.48043 11.1054 2.29289 11.2929C2.10536 11.4804 2 11.7348 2 12C2 13.9778 2.58649 15.9112 3.6853 17.5557C4.78412 19.2002 6.3459 20.4819 8.17317 21.2388C10.0004 21.9957 12.0111 22.1937 13.9509 21.8079C15.8907 21.422 17.6725 20.4696 19.0711 19.0711C20.4696 17.6725 21.422 15.8907 21.8079 13.9509C22.1937 12.0111 21.9957 10.0004 21.2388 8.17317C20.4819 6.3459 19.2002 4.78412 17.5557 3.6853C15.9112 2.58649 13.9778 2 12 2Z" fill="#374FA2"/>
<path d="M16 12.0049C16 12.2576 15.9205 12.5113 15.7614 12.7145C15.7315 12.7543 15.5923 12.9186 15.483 13.0255L15.4233 13.0838C14.5881 13.9694 12.5099 15.3011 11.456 15.7278C11.456 15.7375 10.8295 15.9913 10.5312 16H10.4915C10.0341 16 9.60653 15.7482 9.38778 15.34C9.26847 15.1154 9.15909 14.4642 9.14915 14.4554C9.05966 13.8712 9 12.9769 9 11.9951C9 10.9657 9.05966 10.0316 9.16903 9.45808C9.16903 9.44836 9.27841 8.92345 9.34801 8.74848C9.45739 8.49672 9.65625 8.2819 9.90483 8.14581C10.1037 8.04957 10.3125 8 10.5312 8C10.7599 8.01069 11.1875 8.15553 11.3565 8.22357C12.4702 8.65128 14.598 10.051 15.4134 10.9064C15.5526 11.0425 15.7017 11.2087 15.7415 11.2467C15.9105 11.4605 16 11.723 16 12.0049Z" fill="#06DAF7"/>
</svg>
