<svg width="24" height="24" viewBox="0 0 24 24" fill="none" xmlns="http://www.w3.org/2000/svg">
<path d="M18.1699 12.6072C17.5898 11.9101 17.3262 11.306 17.3262 10.2796V9.93059C17.3262 8.59309 17.0271 7.73132 16.3767 6.86956C15.3744 5.53123 13.687 4.72461 12.0351 4.72461H11.9649C10.3477 4.72461 8.7132 5.49419 7.6935 6.77819C7.00764 7.65724 6.67379 8.55605 6.67379 9.93059V10.2796C6.67379 11.306 6.42755 11.9101 5.83009 12.6072C5.39049 13.1208 5.25 13.781 5.25 14.4954C5.25 15.2106 5.47809 15.888 5.93585 16.4387C6.53331 17.0988 7.37701 17.5202 8.23886 17.5935C9.48666 17.74 10.7344 17.7951 12.0004 17.7951C13.2656 17.7951 14.5133 17.7029 15.7619 17.5935C16.623 17.5202 17.4667 17.0988 18.0641 16.4387C18.5211 15.888 18.75 15.2106 18.75 14.4954C18.75 13.781 18.6095 13.1208 18.1699 12.6072Z" fill="#374FA2"/>
<path d="M14.2612 18.9793C13.7318 18.863 10.506 18.863 9.97663 18.9793C9.52407 19.0869 9.03467 19.3372 9.03467 19.886C9.06098 20.4095 9.35883 20.8716 9.7714 21.1647L9.77034 21.1658C10.3039 21.5938 10.9302 21.866 11.5859 21.9637C11.9353 22.0131 12.291 22.0109 12.6531 21.9637C13.3077 21.866 13.9339 21.5938 14.4675 21.1658L14.4665 21.1647C14.879 20.8716 15.1769 20.4095 15.2032 19.886C15.2032 19.3372 14.7138 19.0869 14.2612 18.9793Z" fill="#06DAF7"/>
<path d="M11.0304 3.58887C11.303 3.65006 12.9644 3.65006 13.237 3.58887C13.4701 3.53229 13.7222 3.40066 13.7222 3.11199C13.7086 2.8366 13.5552 2.59354 13.3427 2.43939L13.3433 2.43882C13.0685 2.21366 12.7459 2.07048 12.4083 2.0191C12.2283 1.99311 12.0451 1.99427 11.8586 2.0191C11.5215 2.07048 11.199 2.21366 10.9241 2.43882L10.9247 2.43939C10.7122 2.59354 10.5588 2.8366 10.5453 3.11199C10.5453 3.40066 10.7973 3.53229 11.0304 3.58887Z" fill="#06DAF7"/>
</svg>
