<svg width="24" height="24" viewBox="0 0 24 24" fill="none" xmlns="http://www.w3.org/2000/svg">
<path d="M7 22H3C2.44772 22 2 21.5523 2 21V17C2 16.4477 2.44772 16 3 16C3.55228 16 4 16.4477 4 17V20H7C7.55228 20 8 20.4477 8 21C8 21.5523 7.55228 22 7 22Z" fill="#374FA2"/>
<path d="M17 22H21C21.5523 22 22 21.5523 22 21V17C22 16.4477 21.5523 16 21 16C20.4477 16 20 16.4477 20 17V20H17C16.4477 20 16 20.4477 16 21C16 21.5523 16.4477 22 17 22Z" fill="#374FA2"/>
<path d="M17 2H21C21.5523 2 22 2.44772 22 3V7C22 7.55228 21.5523 8 21 8C20.4477 8 20 7.55228 20 7V4H17C16.4477 4 16 3.55228 16 3C16 2.44772 16.4477 2 17 2Z" fill="#374FA2"/>
<path d="M7 2H3C2.44772 2 2 2.44772 2 3V7C2 7.55228 2.44772 8 3 8C3.55228 8 4 7.55228 4 7V4H7C7.55228 4 8 3.55228 8 3C8 2.44772 7.55228 2 7 2Z" fill="#374FA2"/>
<path d="M14.4084 14.3382C14.4717 14.4619 14.5033 14.5823 14.5033 14.6994C14.5033 14.9142 14.4085 15.0965 14.2188 15.2462C14.0362 15.3959 13.8256 15.4707 13.5868 15.4707C13.4252 15.4707 13.2778 15.4317 13.1443 15.3536C13.0109 15.2755 12.9056 15.1583 12.8283 15.0021L12.3543 14.016H8.94114L8.45656 15.0021C8.37931 15.1583 8.27045 15.2755 8.13 15.3536C7.99656 15.4317 7.84908 15.4707 7.68755 15.4707C7.44878 15.4707 7.23107 15.3959 7.03443 15.2462C6.84481 15.0965 6.75 14.9142 6.75 14.6994C6.75 14.5823 6.7816 14.4619 6.84481 14.3382L9.62587 9.04672C9.71717 8.87099 9.8506 8.73756 10.0262 8.64644C10.2088 8.54881 10.4089 8.5 10.6266 8.5C10.8373 8.5 11.034 8.54881 11.2166 8.64644C11.3991 8.73756 11.5361 8.87099 11.6274 9.04672L14.4084 14.3382ZM9.59427 12.6688H11.7011L10.6477 10.4916L9.59427 12.6688Z" fill="#06DAF7"/>
<path d="M16.2703 15.5C15.9753 15.5 15.7401 15.4219 15.5645 15.2657C15.396 15.103 15.3117 14.8849 15.3117 14.6116V9.38842C15.3117 9.12157 15.396 8.91004 15.5645 8.75384C15.7401 8.59112 15.9753 8.50976 16.2703 8.50976C16.5723 8.50976 16.8111 8.59112 16.9866 8.75384C17.1622 8.91004 17.25 9.12157 17.25 9.38842V14.6116C17.25 14.8849 17.1622 15.103 16.9866 15.2657C16.8111 15.4219 16.5723 15.5 16.2703 15.5Z" fill="#06DAF7"/>
</svg>
