<svg width="24" height="24" viewBox="0 0 24 24" fill="none" xmlns="http://www.w3.org/2000/svg">
<path d="M16.191 2H7.81C4.77 2 3 3.78 3 6.83V17.16C3 20.26 4.77 22 7.81 22H16.191C19.28 22 21 20.26 21 17.16V6.83C21 3.78 19.28 2 16.191 2Z" fill="#374FA2"/>
<path fill-rule="evenodd" clip-rule="evenodd" d="M7.85714 6V6.01274C7.38352 6.01274 7 6.4586 7 7.00637C7 7.55414 7.38352 8 7.85714 8H11.1418C11.6154 8 12 7.55414 12 6.99236C12 6.44586 11.6154 6 11.1418 6H7.85714ZM17 12.0006C17 12.5516 16.6277 13 16.1702 13H7.82979C7.37128 13 7 12.5516 7 12.0006C7 11.4497 7.37128 11 7.82979 11H16.1702C16.6277 11 17 11.4497 17 12.0006ZM16.2561 17.9919H7.92455C7.60574 18.0425 7.29756 17.8527 7.12752 17.5363C6.95749 17.2073 6.95749 16.7897 7.12752 16.4733C7.29756 16.1443 7.60574 15.9671 7.92455 16.0051H16.2561C16.6801 16.0557 17 16.486 17 17.0048C17 17.5097 16.6801 17.9413 16.2561 17.9919Z" fill="#06DAF7"/>
</svg>
