<svg width="46" height="31" viewBox="0 0 46 31" fill="none" xmlns="http://www.w3.org/2000/svg">
<path d="M7.78321 13.0382C7.52996 8.5408 11.7023 4.75825 17.0402 7.65893C17.1947 7.42544 17.3635 7.19015 17.5108 6.94409C18.064 6.02629 18.5418 5.0546 19.1722 4.19248C20.8821 1.85398 23.2637 0.699099 26.1212 0.54284C27.4952 0.467405 28.8728 0.458424 30.2379 0.797884C33.2355 1.54326 35.4896 3.23697 36.9606 5.95085C37.8748 7.63917 38.3687 9.45321 38.4693 11.3714C38.498 11.9264 38.5232 12.4796 38.5519 13.0741C39.0692 13.2735 39.547 13.4405 40.0103 13.6381C42.7691 14.8199 44.6496 16.801 45.3088 19.7663C46.6864 25.9592 41.6592 30.4997 37.0468 30.4872C29.5302 30.4674 22.0136 30.4836 14.497 30.48C14.3084 30.48 14.1198 30.4315 13.748 30.3812C14.1898 29.9142 14.5634 29.5963 14.8364 29.2066C15.1256 28.7935 15.3178 28.3121 15.6123 27.7463C16.1027 27.7284 16.6559 27.696 17.2109 27.6924C18.3873 27.6835 19.5637 27.705 20.7384 27.6817C21.7711 27.6619 21.9238 27.5218 22.177 26.4729C22.2219 26.2861 22.1842 26.0796 22.1842 25.8856C21.6795 25.6144 21.2449 25.3935 20.821 25.988C20.6989 26.1586 20.3881 26.2753 20.1636 26.2789C18.6334 26.3041 17.1031 26.2915 15.589 26.2915C15.395 25.8838 15.2549 25.5551 15.0843 25.2426C14.488 24.156 13.5361 23.6495 12.3237 23.6082C11.5388 23.5812 11.1814 23.8955 11.1742 24.6876C11.1598 26.4244 11.1868 28.163 11.194 29.9016C11.194 30.0435 11.1634 30.1872 11.1473 30.3183C4.92384 31.5163 0.300719 26.5879 0.464163 21.4636C0.577316 17.8912 2.93737 14.696 6.4092 13.4764C6.84026 13.3256 7.27851 13.1981 7.78321 13.0382ZM34.8879 15.8311C34.5089 15.6641 34.3347 15.5635 34.1479 15.506C28.6339 13.8159 23.12 12.1276 17.6042 10.4429C17.3114 10.3531 17.0133 10.274 16.7133 10.2255C16.3829 10.1716 16.1063 10.2992 15.9464 10.6027C15.8512 10.7805 15.7794 10.9745 15.7183 11.1685C14.9747 13.5034 14.2258 15.8365 13.4966 18.175C13.211 19.0928 13.3241 19.2958 14.285 19.6101C15.4004 19.9765 16.5248 20.3123 17.6473 20.6572C20.3791 21.4978 23.1092 22.3365 25.841 23.1717C26.4373 23.3549 26.9762 23.4627 27.5329 22.9364C29.796 20.7937 32.1022 18.6977 34.3832 16.5765C34.5592 16.4148 34.658 16.1778 34.8879 15.8311ZM30.1445 22.8269C30.3833 23.019 30.4821 23.152 30.6132 23.1969C31.3317 23.4411 32.0519 23.6854 32.7847 23.8848C33.5965 24.1057 33.8534 23.962 34.1318 23.1268C34.5018 22.0222 34.834 20.9033 35.1789 19.7897C35.2238 19.646 35.3136 19.4772 35.2741 19.3532C35.204 19.1287 35.0945 18.8773 34.922 18.7372C34.8143 18.651 34.5485 18.7174 34.3724 18.7731C34.2359 18.8162 34.1228 18.9437 34.0114 19.0461C32.8565 20.113 31.6999 21.1781 30.5522 22.2539C30.4139 22.3868 30.3223 22.5736 30.1445 22.8269ZM24.8873 24.4936C23.0894 23.9404 21.3454 23.4052 19.6104 22.8736C19.262 23.7303 19.2907 23.9907 19.8421 24.1739C21.1497 24.6104 22.4716 24.9983 23.7899 25.4006C23.8869 25.4294 23.9929 25.4455 24.0934 25.4402C24.5586 25.4168 24.8694 25.2192 24.8873 24.4936Z" fill="#374FA2"/>
</svg>
