<svg width="66" height="9" viewBox="0 0 66 9" fill="none" xmlns="http://www.w3.org/2000/svg">
<g clip-path="url(#clip0_101_5516)">
<path d="M7.34536 4.15948C7.33542 5.3167 6.94468 6.37557 6.29254 7.1536C6.03964 7.45553 5.70574 7.75746 5.42159 7.96111C4.69839 8.47789 3.87858 8.79106 3.17812 8.90201C2.63394 8.98909 2.09262 9.00313 1.25149 9.00313H0.779785V0.113525H2.47765V7.29965C2.47765 7.29965 2.88258 7.34598 3.5049 7.12832C4.2281 6.87553 4.78363 6.32923 4.98538 6.04415C5.35621 5.52031 5.62049 5.0962 5.64749 3.99798V0.113525H7.34536V4.15948Z" fill="#F36F21"/>
<path d="M14.9162 8.99977H13.2183V2.75037C13.2183 2.48775 13.1232 2.26165 12.9342 2.07347C12.7438 1.88528 12.5094 1.79119 12.2337 1.79119H11.0218C10.7547 1.79119 10.05 1.79259 10.05 1.79259V2.75037V8.99977H8.35205V2.75037V0.111572H11.0218H12.2337C12.9768 0.111572 13.6091 0.369974 14.1334 0.886779C14.6562 1.40358 14.9176 2.02572 14.9176 2.74896V8.99977H14.9162Z" fill="#F36F21"/>
<path d="M22.4898 6.36097C22.4898 7.08562 22.2284 7.70637 21.7041 8.22315C21.1799 8.73996 20.5476 8.99837 19.8059 8.99837H18.5925C17.8594 8.99837 17.2314 8.73996 16.7086 8.22315C16.1857 7.70637 15.9229 7.08562 15.9229 6.36097V2.75037C15.9229 2.02431 16.1843 1.40358 16.7086 0.886779C17.2314 0.369974 17.8594 0.111572 18.5925 0.111572H21.4782V1.79119H18.5925C18.3255 1.79119 18.0981 1.88528 17.9077 2.07206C17.7173 2.25884 17.6221 2.48635 17.6221 2.75037V6.36097C17.6221 6.625 17.7173 6.84971 17.9077 7.03788C18.0981 7.22605 18.3269 7.32016 18.5925 7.32016H19.8059C20.0816 7.32016 20.3146 7.22605 20.5064 7.03788C20.6968 6.84971 20.792 6.625 20.792 6.36097V5.40179H18.6338V3.72358H22.4913V6.36097H22.4898Z" fill="#F36F21"/>
<path d="M43.6109 7.51394C41.8322 7.60239 40.3713 6.15872 40.4609 4.40188C40.5376 2.89639 41.7753 1.6732 43.2984 1.59736C45.0772 1.50888 46.5377 2.95257 46.4481 4.70943C46.3714 6.21492 45.1341 7.43809 43.6109 7.51394ZM43.6023 0.114353C41.0024 0.0329005 38.878 2.13242 38.9619 4.70101C39.0375 7.02801 40.9541 8.92251 43.3082 8.99692C45.907 9.07839 48.0324 6.97887 47.9486 4.41031C47.8733 2.08327 45.9567 0.188784 43.6023 0.114353Z" fill="#374FA2"/>
<path d="M30.4013 7.29198C30.002 7.45628 29.5601 7.53635 29.0955 7.51388C27.5582 7.43663 26.315 6.19095 26.2568 4.67003C26.1914 2.9806 27.5582 1.59168 29.2518 1.59168C29.6624 1.59168 30.0546 1.67314 30.4112 1.822C31.1017 2.10849 31.9016 1.93575 32.4302 1.41192C31.5848 0.576329 30.4041 0.0721635 29.104 0.11289C26.7199 0.187321 24.7919 2.12955 24.7564 4.48747C24.7194 6.9732 26.7455 8.99827 29.2518 8.99827C30.4936 8.99827 31.6175 8.50115 32.4316 7.69644L32.3989 7.66414C31.8746 7.14733 31.0861 7.01111 30.4013 7.29198Z" fill="#374FA2"/>
<path d="M35.0985 6.68958V1.59317C35.0985 0.775835 34.4279 0.111572 33.5996 0.111572V6.77526C33.5996 8.00409 34.607 8.99977 35.8501 8.99977H39.5939C39.5939 8.18243 38.9232 7.51816 38.0949 7.51816H35.9354C35.4736 7.51816 35.0985 7.14743 35.0985 6.68958Z" fill="#374FA2"/>
<path d="M54.9655 1.59586V5.29637C54.9655 6.52375 53.9597 7.51807 52.7181 7.51807C51.4761 7.51807 50.4702 6.52375 50.4702 5.29637V1.59586C50.4702 0.77852 49.7996 0.114258 48.9712 0.114258V5.29637C48.9712 7.34109 50.6491 8.99965 52.7181 8.99965C54.7866 8.99965 56.4646 7.34109 56.4646 5.29637V0.114258C55.6377 0.114258 54.9655 0.777115 54.9655 1.59586Z" fill="#374FA2"/>
<path d="M65.2161 4.35275C65.1081 1.96814 63.0748 0.111572 60.6596 0.111572H57.7271V7.51816C58.5551 7.51816 59.2257 6.85533 59.2257 6.03658V1.59317H60.7305C62.3829 1.59598 63.7228 2.9217 63.7228 4.55637C63.7228 6.19246 62.38 7.51816 60.7248 7.51816H60.3554C59.5285 7.51816 58.8564 8.18103 58.8564 8.99977H60.7248C63.2764 8.99977 65.331 6.89885 65.2161 4.35275Z" fill="#374FA2"/>
</g>
<defs>
<clipPath id="clip0_101_5516">
<rect width="64.44" height="9" fill="white" transform="translate(0.779785)"/>
</clipPath>
</defs>
</svg>
