<svg width="38" height="37" viewBox="0 0 38 37" fill="none" xmlns="http://www.w3.org/2000/svg">
<g filter="url(#filter0_d_41_23454)">
<path d="M4.71535 17.2032C4.09861 16.1422 4.45881 14.782 5.51989 14.1653L17.2395 7.35328C18.3006 6.73653 19.6608 7.09674 20.2775 8.15782L26.9778 19.6853C27.5946 20.7464 27.2344 22.1066 26.1733 22.7233L22.7259 24.7271C22.1252 25.0762 21.7224 25.6862 21.6371 26.3758L21.4302 28.0505L19.8725 27.4015C19.2311 27.1342 18.5017 27.1824 17.901 27.5315L14.4536 29.5353C13.3926 30.152 12.0324 29.7918 11.4157 28.7308L4.71535 17.2032Z" fill="white"/>
<path fill-rule="evenodd" clip-rule="evenodd" d="M21.0906 15.5262C22.7562 18.3916 21.7839 22.0645 18.919 23.7297C16.054 25.3949 12.3814 24.4219 10.7159 21.5565C9.05036 18.6911 10.0227 15.0182 12.8876 13.353C15.7525 11.6878 19.4251 12.6608 21.0906 15.5262ZM17.8054 15.4801C17.6367 15.4741 17.4809 15.5554 17.3898 15.6965L17.0812 16.1709C16.967 16.3462 16.9624 16.5691 17.0689 16.7522L18.0684 18.4719C18.1749 18.6551 18.3706 18.7611 18.5798 18.7492L19.1443 18.7158C19.2213 18.7119 19.2932 18.6897 19.3566 18.6529C19.4326 18.6087 19.4956 18.5433 19.5385 18.4619C19.617 18.3126 19.6125 18.1354 19.527 17.9881L18.2115 15.7249C18.1259 15.5777 17.9741 15.4862 17.8054 15.4801ZM15.4718 21.789L17.179 20.7968C17.8928 20.3818 18.1051 19.5998 17.6954 18.895L16.5169 16.8674C16.107 16.1623 15.3226 15.96 14.6088 16.3749L12.9016 17.3672C12.1878 17.7821 11.9753 18.5638 12.3852 19.2689L13.5637 21.2965C13.9734 22.0013 14.758 22.204 15.4718 21.789Z" fill="#EF3B3B"/>
</g>
<defs>
<filter id="filter0_d_41_23454" x="-4" y="-4" width="46.8101" height="46.8101" filterUnits="userSpaceOnUse" color-interpolation-filters="sRGB">
<feFlood flood-opacity="0" result="BackgroundImageFix"/>
<feColorMatrix in="SourceAlpha" type="matrix" values="0 0 0 0 0 0 0 0 0 0 0 0 0 0 0 0 0 0 127 0" result="hardAlpha"/>
<feOffset dx="3"/>
<feGaussianBlur stdDeviation="3.5"/>
<feColorMatrix type="matrix" values="0 0 0 0 0.0784314 0 0 0 0 0.133333 0 0 0 0 0.270588 0 0 0 0.07 0"/>
<feBlend mode="normal" in2="BackgroundImageFix" result="effect1_dropShadow_41_23454"/>
<feBlend mode="normal" in="SourceGraphic" in2="effect1_dropShadow_41_23454" result="shape"/>
</filter>
</defs>
</svg>
