<svg width="32" height="34" viewBox="0 0 32 34" fill="none" xmlns="http://www.w3.org/2000/svg">
<g filter="url(#filter0_d_41_21818)">
<path d="M4 9.22222C4 7.99492 4.99492 7 6.22222 7L19.7778 7C21.0051 7 22 7.99492 22 9.22222V22.5556C22 23.7829 21.0051 24.7778 19.7778 24.7778H15.7903C15.0955 24.7778 14.4407 25.1027 14.0205 25.6561L13 27L11.9795 25.6561C11.5593 25.1027 10.9045 24.7778 10.2097 24.7778H6.22222C4.99492 24.7778 4 23.7829 4 22.5556L4 9.22222Z" fill="white"/>
<path fill-rule="evenodd" clip-rule="evenodd" d="M19 16.0011C19 19.3154 16.3137 22.0022 13 22.0022C9.68629 22.0022 7 19.3154 7 16.0011C7 12.6868 9.68629 10 13 10C16.3137 10 19 12.6868 19 16.0011ZM16.182 14.3111C16.0391 14.2211 15.8636 14.2131 15.7139 14.2893L15.2087 14.5444C15.0219 14.6386 14.906 14.829 14.906 15.0408V17.0299C14.906 17.2417 15.0219 17.4318 15.2087 17.5266L15.7136 17.7814C15.7821 17.8167 15.8554 17.8337 15.9287 17.8337C16.0166 17.8337 16.1039 17.8087 16.182 17.7599C16.3248 17.6703 16.4101 17.5148 16.4101 17.3445V14.7268C16.4101 14.5565 16.3248 14.4011 16.182 14.3111ZM10.9942 18.5928H12.9688C13.7945 18.5928 14.371 18.0234 14.371 17.2082V14.8629C14.371 14.0474 13.7945 13.4783 12.9688 13.4783H10.9942C10.1685 13.4783 9.59205 14.0474 9.59205 14.8629V17.2082C9.59205 18.0234 10.1685 18.5928 10.9942 18.5928Z" fill="#3ED25E"/>
</g>
<defs>
<filter id="filter0_d_41_21818" x="-3" y="-2" width="38" height="38" filterUnits="userSpaceOnUse" color-interpolation-filters="sRGB">
<feFlood flood-opacity="0" result="BackgroundImageFix"/>
<feColorMatrix in="SourceAlpha" type="matrix" values="0 0 0 0 0 0 0 0 0 0 0 0 0 0 0 0 0 0 127 0" result="hardAlpha"/>
<feOffset dx="3"/>
<feGaussianBlur stdDeviation="3.5"/>
<feColorMatrix type="matrix" values="0 0 0 0 0.0784314 0 0 0 0 0.133333 0 0 0 0 0.270588 0 0 0 0.07 0"/>
<feBlend mode="normal" in2="BackgroundImageFix" result="effect1_dropShadow_41_21818"/>
<feBlend mode="normal" in="SourceGraphic" in2="effect1_dropShadow_41_21818" result="shape"/>
</filter>
</defs>
</svg>
