<svg width="41" height="30" viewBox="0 0 41 30" fill="none" xmlns="http://www.w3.org/2000/svg">
<path d="M20.4071 19.6035C14.1344 19.6035 8.8418 20.6253 8.8418 24.5688C8.8418 28.514 14.1686 29.4999 20.4071 29.4999C26.6797 29.4999 31.9724 28.4781 31.9724 24.5346C31.9724 20.5894 26.6456 19.6035 20.4071 19.6035" fill="#374FA2"/>
<path d="M20.4064 15.8465C24.6538 15.8465 28.0596 12.4318 28.0596 8.17325C28.0596 3.91305 24.6538 0.5 20.4064 0.5C16.1589 0.5 12.7532 3.91305 12.7532 8.17325C12.7532 12.4318 16.1589 15.8465 20.4064 15.8465" fill="#06DAF7"/>
<path d="M37.0221 9.96001C38.121 5.65085 34.8992 1.78076 30.7967 1.78076C30.3506 1.78076 29.9241 1.82973 29.5073 1.91297C29.4519 1.92603 29.3901 1.95378 29.3575 2.00275C29.3201 2.06477 29.3477 2.14802 29.3884 2.20188C30.6208 3.93534 31.329 6.04585 31.329 8.31143C31.329 10.4823 30.6794 12.5063 29.5398 14.1859C29.4226 14.359 29.5268 14.5924 29.7336 14.6283C30.0201 14.6789 30.3131 14.705 30.6127 14.7132C33.6001 14.7915 36.2814 12.8638 37.0221 9.96001" fill="#06DAF7"/>
<path d="M40.1532 20.1056C39.6062 18.9369 38.2859 18.1354 36.2786 17.7421C35.3311 17.5103 32.767 17.1838 30.382 17.2279C30.3462 17.2328 30.3267 17.2573 30.3234 17.2736C30.3185 17.2965 30.3283 17.3356 30.3755 17.3601C31.4776 17.9069 35.7381 20.2851 35.2025 25.3011C35.1797 25.5182 35.3539 25.7059 35.5704 25.6732C36.6189 25.5231 39.3164 24.942 40.1532 23.1318C40.6156 22.1753 40.6156 21.0637 40.1532 20.1056" fill="#374FA2"/>
<path d="M11.4908 1.91346C11.0757 1.82859 10.6475 1.78125 10.2015 1.78125C6.0989 1.78125 2.8771 5.65134 3.97763 9.9605C4.71674 12.8643 7.39804 14.792 10.3854 14.7136C10.685 14.7055 10.9796 14.6777 11.2645 14.6288C11.4713 14.5929 11.5755 14.3594 11.4583 14.1864C10.3187 12.5052 9.6691 10.4828 9.6691 8.31192C9.6691 6.04471 10.3789 3.9342 11.6113 2.20237C11.6504 2.14851 11.6797 2.06526 11.6406 2.00324C11.608 1.95264 11.5478 1.92652 11.4908 1.91346" fill="#06DAF7"/>
<path d="M4.72098 17.7417C2.71367 18.1351 1.39499 18.9365 0.847984 20.1052C0.384005 21.0634 0.384005 22.1749 0.847984 23.1331C1.68477 24.9416 4.38236 25.5243 5.43079 25.6729C5.64731 25.7055 5.81988 25.5194 5.79709 25.3007C5.26148 20.2864 9.52194 17.9082 10.6257 17.3614C10.6713 17.3353 10.6811 17.2977 10.6762 17.2732C10.6729 17.2569 10.655 17.2324 10.6192 17.2292C8.23257 17.1835 5.67011 17.5099 4.72098 17.7417" fill="#374FA2"/>
</svg>
