<svg width="77" height="91" viewBox="0 0 77 91" fill="none" xmlns="http://www.w3.org/2000/svg">
<g opacity="0.04">
<path d="M53.7909 56.3582C39.6774 56.3582 27.769 58.6572 27.769 67.5302C27.769 76.4068 39.7543 78.625 53.7909 78.625C67.9044 78.625 79.8128 76.326 79.8128 67.453C79.8128 58.5764 67.8275 56.3582 53.7909 56.3582" fill="#374FA2"/>
<path d="M53.7893 47.9046C63.346 47.9046 71.009 40.2216 71.009 30.6398C71.009 21.0544 63.346 13.375 53.7893 13.375C44.2326 13.375 36.5696 21.0544 36.5696 30.6398C36.5696 40.2216 44.2326 47.9046 53.7893 47.9046" fill="#374FA2"/>
<path d="M91.1748 34.6599C93.6473 24.9643 86.3982 16.2566 77.1675 16.2566C76.1638 16.2566 75.2041 16.3668 74.2664 16.5541C74.1419 16.5835 74.0027 16.6459 73.9294 16.7561C73.8452 16.8956 73.9074 17.0829 73.999 17.2041C76.7719 21.1044 78.3653 25.8531 78.3653 30.9506C78.3653 35.8351 76.9037 40.3891 74.3397 44.1682C74.0759 44.5575 74.3104 45.0827 74.7756 45.1635C75.4202 45.2773 76.0796 45.3361 76.7536 45.3545C83.4751 45.5308 89.5081 41.1934 91.1748 34.6599" fill="#374FA2"/>
<path d="M98.2198 57.4877C96.989 54.8582 94.0183 53.0549 89.5019 52.1698C87.37 51.6483 81.6008 50.9138 76.2345 51.013C76.1539 51.024 76.11 51.0791 76.1026 51.1158C76.0917 51.1672 76.1136 51.2554 76.2199 51.3105C78.6997 52.5408 88.2857 57.8917 87.0806 69.1776C87.0293 69.666 87.4213 70.0884 87.9085 70.0149C90.2674 69.677 96.337 68.3696 98.2198 64.2967C99.2601 62.1446 99.2601 59.6436 98.2198 57.4877" fill="#374FA2"/>
<path d="M33.7294 16.555C32.7953 16.3641 31.8319 16.2576 30.8283 16.2576C21.5975 16.2576 14.3485 24.9653 16.8247 34.6609C18.4877 41.1944 24.5206 45.5317 31.2422 45.3554C31.9162 45.3371 32.5792 45.2746 33.2202 45.1645C33.6854 45.0837 33.9198 44.5585 33.6561 44.1692C31.092 40.3864 29.6305 35.8361 29.6305 30.9516C29.6305 25.8504 31.2275 21.1017 34.0004 17.2051C34.0883 17.0839 34.1543 16.8966 34.0663 16.757C33.9931 16.6432 33.8576 16.5844 33.7294 16.555" fill="#374FA2"/>
<path d="M18.4972 52.1688C13.9807 53.0539 11.0137 54.8571 9.78296 57.4867C8.73901 59.6425 8.73901 62.1435 9.78296 64.2993C11.6657 68.3685 17.7353 69.6797 20.0943 70.0139C20.5815 70.0873 20.9697 69.6686 20.9185 69.1765C19.7133 57.8943 29.2994 52.5434 31.7829 51.3131C31.8854 51.2543 31.9074 51.1698 31.8964 51.1147C31.8891 51.078 31.8488 51.0229 31.7682 51.0156C26.3983 50.9128 20.6327 51.6473 18.4972 52.1688" fill="#374FA2"/>
</g>
</svg>
