<svg width="20" height="20" viewBox="0 0 20 20" fill="none" xmlns="http://www.w3.org/2000/svg">
<path d="M8.5415 1.66675C12.3365 1.66675 15.4165 4.74675 15.4165 8.54175C15.4165 12.3367 12.3365 15.4167 8.5415 15.4167C4.7465 15.4167 1.6665 12.3367 1.6665 8.54175C1.6665 4.74675 4.7465 1.66675 8.5415 1.66675ZM8.5415 13.889C11.4955 13.889 13.8887 11.4957 13.8887 8.54175C13.8887 5.58703 11.4955 3.19453 8.5415 3.19453C5.58678 3.19453 3.19428 5.58703 3.19428 8.54175C3.19428 11.4957 5.58678 13.889 8.5415 13.889Z" fill="#374FA2"/>
<path d="M17.0832 18.3334C16.7808 18.3237 16.5437 18.1594 16.3286 17.9461L14.4854 15.8C14.0903 15.4401 14.0579 14.8282 14.413 14.4285C14.5792 14.2609 14.8051 14.1667 15.0408 14.1667C15.2765 14.1667 15.5024 14.2609 15.6686 14.4285L17.9867 16.276C18.3206 16.6165 18.4237 17.1219 18.2498 17.5663C18.0759 18.0108 17.6576 18.3113 17.1818 18.3334H17.0832Z" fill="#374FA2"/>
</svg>
