<svg width="24" height="24" viewBox="0 0 24 24" fill="none" xmlns="http://www.w3.org/2000/svg">
<path d="M20.0831 10.5001L21.2851 11.2211C21.3593 11.2655 21.4206 11.3283 21.4633 11.4035C21.5059 11.4787 21.5283 11.5636 21.5283 11.6501C21.5283 11.7365 21.5059 11.8214 21.4633 11.8966C21.4206 11.9718 21.3593 12.0347 21.2851 12.0791L12.0001 17.6501L2.7151 12.0791C2.64095 12.0347 2.57956 11.9718 2.53695 11.8966C2.49433 11.8214 2.47192 11.7365 2.47192 11.6501C2.47192 11.5636 2.49433 11.4787 2.53695 11.4035C2.57956 11.3283 2.64095 11.2655 2.7151 11.2211L3.9171 10.5001L12.0001 15.3501L20.0831 10.5001ZM20.0831 15.2001L21.2851 15.9211C21.3593 15.9655 21.4206 16.0283 21.4633 16.1035C21.5059 16.1787 21.5283 16.2636 21.5283 16.3501C21.5283 16.4365 21.5059 16.5214 21.4633 16.5966C21.4206 16.6718 21.3593 16.7347 21.2851 16.7791L12.5151 22.0411C12.3596 22.1345 12.1815 22.1839 12.0001 22.1839C11.8187 22.1839 11.6406 22.1345 11.4851 22.0411L2.7151 16.7791C2.64095 16.7347 2.57956 16.6718 2.53695 16.5966C2.49433 16.5214 2.47192 16.4365 2.47192 16.3501C2.47192 16.2636 2.49433 16.1787 2.53695 16.1035C2.57956 16.0283 2.64095 15.9655 2.7151 15.9211L3.9171 15.2001L12.0001 20.0501L20.0831 15.2001ZM12.5141 1.30907L21.2851 6.57107C21.3593 6.61546 21.4206 6.67832 21.4633 6.75351C21.5059 6.82869 21.5283 6.91364 21.5283 7.00007C21.5283 7.0865 21.5059 7.17145 21.4633 7.24663C21.4206 7.32182 21.3593 7.38468 21.2851 7.42907L12.0001 13.0001L2.7151 7.42907C2.64095 7.38468 2.57956 7.32182 2.53695 7.24663C2.49433 7.17145 2.47192 7.0865 2.47192 7.00007C2.47192 6.91364 2.49433 6.82869 2.53695 6.75351C2.57956 6.67832 2.64095 6.61546 2.7151 6.57107L11.4851 1.30907C11.6406 1.21563 11.8187 1.16626 12.0001 1.16626C12.1815 1.16626 12.3596 1.21563 12.5151 1.30907H12.5141Z" fill="#374FA2"/>
</svg>
