<svg width="85" height="92" viewBox="0 0 85 92" fill="none" xmlns="http://www.w3.org/2000/svg">
<g opacity="0.04">
<path d="M89.725 60.5458C87.5415 60.5458 85.4704 60.0591 83.61 59.1934C82.7469 61.1261 81.6899 62.9818 80.4447 64.737C79.4874 66.0864 79.6254 67.8989 80.773 69.0468C81.4747 69.7485 82.4066 70.0906 83.3952 70.0071C84.3714 69.9257 85.2572 69.4212 85.8257 68.623C87.6332 66.0852 89.1133 63.3724 90.2532 60.5325C90.0776 60.5388 89.9022 60.5458 89.725 60.5458V60.5458Z" fill="#374FA2"/>
<path d="M83.3952 21.993C83.3024 21.9853 83.2097 21.9814 83.1174 21.9814C82.2408 21.9814 81.3988 22.3276 80.773 22.9532C79.6254 24.101 79.4874 25.9135 80.4447 27.263C81.6899 29.0181 82.7469 30.8739 83.61 32.8066C85.4704 31.9409 87.5413 31.4541 89.7251 31.4541C89.9022 31.4541 90.0777 31.4611 90.2535 31.4675C89.1133 28.6276 87.6333 25.9147 85.8259 23.377C85.2572 22.5789 84.3715 22.0744 83.3952 21.993V21.993Z" fill="#374FA2"/>
<path d="M68.5475 10.2725C68.5475 12.4561 68.0608 14.5271 67.1951 16.3874C69.1278 17.2505 70.9835 18.3075 72.7387 19.5529C74.0881 20.5102 75.9004 20.3722 77.0485 19.2245C77.7502 18.5227 78.0914 17.5915 78.0088 16.6024C77.9272 15.6263 77.4229 14.7405 76.6247 14.1719C74.0871 12.3643 71.3741 10.8843 68.5342 9.74414C68.5405 9.91992 68.5475 10.0954 68.5475 10.2725V10.2725Z" fill="#374FA2"/>
<path d="M35.2622 19.5527C37.0174 18.3073 38.8731 17.2505 40.8058 16.3874C39.9401 14.527 39.4534 12.4561 39.4534 10.2725C39.4534 10.0954 39.4604 9.91975 39.4667 9.74414C36.6268 10.8843 33.914 12.3643 31.3762 14.1719C30.578 14.7404 30.0735 15.6263 29.9921 16.6024C29.9095 17.5915 30.2505 18.5227 30.9522 19.2246C32.1003 20.3724 33.9127 20.5104 35.2622 19.5527Z" fill="#374FA2"/>
<path d="M24.6054 70.0069C25.5947 70.0906 26.5258 69.7484 27.2275 69.0468C28.3752 67.899 28.5134 66.0865 27.5559 64.737C26.3105 62.9818 25.2537 61.1261 24.3906 59.1934C22.5301 60.0591 20.4593 60.5458 18.2757 60.5458C18.0985 60.5458 17.9229 60.5388 17.7473 60.5325C18.8874 63.3724 20.3675 66.0854 22.1751 68.623C22.7434 69.421 23.6293 69.9255 24.6054 70.0069V70.0069Z" fill="#374FA2"/>
<path d="M18.2757 31.4541C20.4593 31.4541 22.5303 31.9408 24.3906 32.8066C25.2537 30.8738 26.3107 29.0181 27.5561 27.2629C28.5136 25.9135 28.3754 24.101 27.2277 22.9531C26.5947 22.3201 25.7752 21.9807 24.8949 21.9807C24.7991 21.9807 24.7026 21.9846 24.6056 21.9928C23.6295 22.0742 22.7435 22.5787 22.1749 23.3769C20.3673 25.9145 18.8873 28.6275 17.7473 31.4675C17.9229 31.4611 18.0985 31.4541 18.2757 31.4541Z" fill="#374FA2"/>
<path d="M54 19.5449C59.121 19.5449 63.2725 15.3935 63.2725 10.2725C63.2725 5.15142 59.121 1 54 1C48.879 1 44.7275 5.15142 44.7275 10.2725C44.7275 15.3935 48.879 19.5449 54 19.5449Z" fill="#374FA2"/>
<path d="M18.2725 55.2725C23.3935 55.2725 27.5449 51.121 27.5449 46C27.5449 40.879 23.3935 36.7275 18.2725 36.7275C13.1514 36.7275 9 40.879 9 46C9 51.121 13.1514 55.2725 18.2725 55.2725Z" fill="#374FA2"/>
<path d="M89.7275 55.2725C94.8486 55.2725 99 51.121 99 46C99 40.879 94.8486 36.7275 89.7275 36.7275C84.6065 36.7275 80.4551 40.879 80.4551 46C80.4551 51.121 84.6065 55.2725 89.7275 55.2725Z" fill="#374FA2"/>
<path d="M72.7387 72.4474C70.9835 73.6926 69.1278 74.7496 67.1951 75.6127C68.0608 77.4732 68.5475 79.544 68.5475 81.7276C68.5475 81.9048 68.5405 82.0802 68.5342 82.256C71.3741 81.1159 74.0869 79.6358 76.6247 77.8282C77.4229 77.2598 77.9272 76.3738 78.0088 75.3977C78.0914 74.4086 77.7502 73.4775 77.0485 72.7756C75.9003 71.6277 74.0876 71.4897 72.7387 72.4474V72.4474Z" fill="#374FA2"/>
<path d="M39.4532 81.7275C39.4532 79.544 39.9399 77.4729 40.8057 75.6126C38.8729 74.7496 37.0172 73.6926 35.262 72.4472C34.6619 72.0214 33.9701 71.8123 33.2861 71.8123C32.432 71.8123 31.5898 72.1382 30.9524 72.7755C30.2507 73.4774 29.9095 74.4085 29.9921 75.3977C30.0735 76.3738 30.578 77.2597 31.3762 77.8284C33.9138 79.6359 36.6268 81.116 39.4667 82.2559C39.4602 82.0803 39.4532 81.9047 39.4532 81.7275Z" fill="#374FA2"/>
<path d="M54 91C59.121 91 63.2725 86.8486 63.2725 81.7275C63.2725 76.6065 59.121 72.4551 54 72.4551C48.879 72.4551 44.7275 76.6065 44.7275 81.7275C44.7275 86.8486 48.879 91 54 91Z" fill="#374FA2"/>
</g>
</svg>
