<svg width="40" height="40" viewBox="0 0 40 40" fill="none" xmlns="http://www.w3.org/2000/svg">
<path d="M35.8777 26.4649C34.9072 26.4649 33.9868 26.2485 33.1599 25.8638C32.7763 26.7228 32.3065 27.5475 31.7531 28.3276C31.3276 28.9274 31.389 29.7329 31.899 30.2431C32.2109 30.5549 32.6251 30.707 33.0644 30.6699C33.4983 30.6337 33.892 30.4095 34.1447 30.0547C34.948 28.9268 35.6058 27.7211 36.1125 26.4589C36.0344 26.4617 35.9565 26.4649 35.8777 26.4649Z" fill="#374FA2"/>
<path d="M33.0644 9.33011C33.0232 9.32667 32.982 9.32495 32.941 9.32495C32.5514 9.32495 32.1772 9.47878 31.899 9.75683C31.389 10.267 31.3276 11.0725 31.7531 11.6723C32.3065 12.4524 32.7763 13.2771 33.1599 14.1361C33.9868 13.7514 34.9072 13.535 35.8777 13.535C35.9565 13.535 36.0344 13.5382 36.1126 13.541C35.6058 12.2788 34.948 11.0731 34.1447 9.94519C33.892 9.5905 33.4983 9.36628 33.0644 9.33011Z" fill="#374FA2"/>
<path d="M26.4656 4.12107C26.4656 5.09154 26.2493 6.01201 25.8645 6.83881C26.7235 7.2224 27.5482 7.69217 28.3283 8.24568C28.9281 8.67115 29.7336 8.60982 30.2438 8.09974C30.5557 7.78779 30.7073 7.37396 30.6706 6.93435C30.6343 6.50053 30.4102 6.10685 30.0554 5.85412C28.9276 5.05076 27.7218 4.39295 26.4597 3.88623C26.4625 3.96436 26.4656 4.04232 26.4656 4.12107Z" fill="#374FA2"/>
<path d="M11.6721 8.2456C12.4522 7.69209 13.277 7.2224 14.136 6.83881C13.7512 6.01193 13.5349 5.09154 13.5349 4.12107C13.5349 4.04232 13.538 3.96428 13.5408 3.88623C12.2786 4.39295 11.0729 5.05076 9.94502 5.85412C9.59025 6.10678 9.36603 6.50053 9.32986 6.93436C9.29314 7.37396 9.4447 7.78779 9.75658 8.09975C10.2668 8.6099 11.0724 8.67123 11.6721 8.2456Z" fill="#374FA2"/>
<path d="M6.93574 30.6698C7.37543 30.707 7.78926 30.5549 8.10113 30.2431C8.61121 29.7329 8.67262 28.9274 8.24707 28.3276C7.69355 27.5475 7.22387 26.7228 6.84027 25.8638C6.0134 26.2485 5.09301 26.4649 4.12254 26.4649C4.04379 26.4649 3.96574 26.4617 3.8877 26.4589C4.39441 27.7211 5.05223 28.9269 5.85559 30.0547C6.10816 30.4094 6.50191 30.6336 6.93574 30.6698Z" fill="#374FA2"/>
<path d="M4.12254 13.5351C5.09301 13.5351 6.01348 13.7514 6.84027 14.1362C7.22387 13.2772 7.69363 12.4524 8.24715 11.6724C8.67269 11.0726 8.61129 10.2671 8.10121 9.75689C7.81988 9.47557 7.45566 9.32471 7.06441 9.32471C7.02184 9.32471 6.97895 9.32643 6.93582 9.3301C6.50199 9.36627 6.10824 9.59049 5.85551 9.94525C5.05215 11.0731 4.39434 12.2788 3.8877 13.541C3.96574 13.5382 4.04379 13.5351 4.12254 13.5351Z" fill="#374FA2"/>
<path d="M20 8.24219C22.276 8.24219 24.1211 6.39711 24.1211 4.12109C24.1211 1.84508 22.276 0 20 0C17.724 0 15.8789 1.84508 15.8789 4.12109C15.8789 6.39711 17.724 8.24219 20 8.24219Z" fill="#06DAF7"/>
<path d="M4.12109 24.1211C6.39711 24.1211 8.24219 22.276 8.24219 20C8.24219 17.724 6.39711 15.8789 4.12109 15.8789C1.84508 15.8789 0 17.724 0 20C0 22.276 1.84508 24.1211 4.12109 24.1211Z" fill="#06DAF7"/>
<path d="M35.8789 24.1211C38.1549 24.1211 40 22.276 40 20C40 17.724 38.1549 15.8789 35.8789 15.8789C33.6029 15.8789 31.7578 17.724 31.7578 20C31.7578 22.276 33.6029 24.1211 35.8789 24.1211Z" fill="#06DAF7"/>
<path d="M28.3283 31.7545C27.5482 32.3079 26.7235 32.7777 25.8645 33.1612C26.2493 33.9881 26.4656 34.9085 26.4656 35.879C26.4656 35.9577 26.4625 36.0357 26.4597 36.1138C27.7218 35.6071 28.9275 34.9493 30.0554 34.1459C30.4102 33.8933 30.6343 33.4995 30.6706 33.0657C30.7073 32.6261 30.5557 32.2123 30.2438 31.9003C29.7335 31.3902 28.9279 31.3288 28.3283 31.7545Z" fill="#374FA2"/>
<path d="M13.5348 35.879C13.5348 34.9085 13.7511 33.988 14.1359 33.1612C13.2769 32.7776 12.4521 32.3079 11.672 31.7544C11.4053 31.5651 11.0978 31.4722 10.7938 31.4722C10.4142 31.4722 10.0399 31.617 9.75665 31.9003C9.44478 32.2122 9.29314 32.6261 9.32986 33.0657C9.36603 33.4995 9.59025 33.8933 9.94501 34.146C11.0728 34.9494 12.2786 35.6072 13.5408 36.1138C13.5379 36.0358 13.5348 35.9577 13.5348 35.879Z" fill="#374FA2"/>
<path d="M20 40C22.276 40 24.1211 38.1549 24.1211 35.8789C24.1211 33.6029 22.276 31.7578 20 31.7578C17.724 31.7578 15.8789 33.6029 15.8789 35.8789C15.8789 38.1549 17.724 40 20 40Z" fill="#06DAF7"/>
</svg>
