<svg width="20" height="20" viewBox="0 0 20 20" fill="none" xmlns="http://www.w3.org/2000/svg">
<path d="M16.6639 8.14492C16.6639 8.20029 16.1993 13.6894 15.9339 15.9996C15.7677 17.4173 14.7891 18.2771 13.3214 18.3016C12.1936 18.3252 11.0896 18.3333 10.0034 18.3333C8.85017 18.3333 7.72241 18.3252 6.62772 18.3016C5.20911 18.2698 4.22974 17.3928 4.07202 15.9996C3.79898 13.6813 3.34279 8.20029 3.33431 8.14492C3.32583 7.97799 3.38349 7.8192 3.50051 7.69054C3.61583 7.57166 3.78203 7.5 3.9567 7.5H16.05C16.2239 7.5 16.3816 7.57166 16.5062 7.69054C16.6224 7.8192 16.6809 7.97799 16.6639 8.14492Z" fill="#374FA2"/>
<path d="M17.5 5.02222C17.5 4.67545 17.2301 4.40378 16.9059 4.40378H14.4762C13.9818 4.40378 13.5522 4.04773 13.442 3.54571L13.3059 2.93064C13.1154 2.18732 12.4581 1.66675 11.7206 1.66675H8.2802C7.53458 1.66675 6.88378 2.18732 6.68603 2.97114L6.55879 3.54656C6.44775 4.04773 6.01821 4.40378 5.52464 4.40378H3.09488C2.76988 4.40378 2.5 4.67545 2.5 5.02222V5.34284C2.5 5.68117 2.76988 5.96128 3.09488 5.96128H16.9059C17.2301 5.96128 17.5 5.68117 17.5 5.34284V5.02222Z" fill="#06DAF7"/>
</svg>
