<svg width="44" height="40" viewBox="0 0 44 40" fill="none" xmlns="http://www.w3.org/2000/svg">
<path fill-rule="evenodd" clip-rule="evenodd" d="M32.2447 0H11.7578C4.32667 0 0 3.56 0 9.66V30.32C0 36.52 4.32667 40 11.7578 40H32.2447C39.7956 40 44 36.52 44 30.32V9.66C44 3.56 39.7956 0 32.2447 0ZM31.5106 32H6.48936C5.11383 32 4 31.1031 4 30.0013C4 28.8994 5.11383 28 6.48936 28H31.5106C32.883 28 34 28.8994 34 30.0013C34 31.1031 32.883 32 31.5106 32ZM38 32C39.1046 32 40 31.1046 40 30C40 28.8954 39.1046 28 38 28C36.8954 28 36 28.8954 36 30C36 31.1046 36.8954 32 38 32Z" fill="#374FA2"/>
<path d="M20.4826 16.7546C21.0491 16.9322 21.4831 17.2314 21.7846 17.6522C22.0861 18.0636 22.2368 18.5732 22.2368 19.1809C22.2368 19.7232 22.0952 20.2001 21.812 20.6115C21.5379 21.0136 21.1404 21.3268 20.6196 21.5512C20.108 21.7756 19.5049 21.8878 18.8105 21.8878H15.1649C14.7903 21.8878 14.5025 21.7849 14.3015 21.5792C14.1005 21.3735 14 21.079 14 20.6957V13.1921C14 12.8088 14.1005 12.5143 14.3015 12.3086C14.5025 12.1029 14.7903 12 15.1649 12H18.6735C19.6877 12 20.4917 12.2338 21.0856 12.7013C21.6886 13.1594 21.9901 13.7812 21.9901 14.5666C21.9901 15.0715 21.8577 15.5203 21.5927 15.913C21.3277 16.2964 20.9577 16.5769 20.4826 16.7546ZM16.4532 15.885H18.2486C18.7237 15.885 19.0709 15.8102 19.2902 15.6606C19.5095 15.511 19.6191 15.2726 19.6191 14.9453C19.6191 14.5993 19.5095 14.3469 19.2902 14.1879C19.0709 14.029 18.7237 13.9495 18.2486 13.9495H16.4532V15.885ZM18.4953 19.9383C18.9978 19.9383 19.3542 19.8588 19.5643 19.6999C19.7836 19.5316 19.8932 19.2604 19.8932 18.8864C19.8932 18.5124 19.7836 18.2459 19.5643 18.087C19.3542 17.9187 18.9978 17.8345 18.4953 17.8345H16.4532V19.9383H18.4953Z" fill="#06DAF7"/>
<path d="M26.7639 22C26.0238 22 25.3705 21.8551 24.804 21.5652C24.2467 21.266 23.8127 20.8453 23.502 20.3029C23.2005 19.7606 23.0497 19.1248 23.0497 18.3955C23.0497 17.6662 23.2005 17.0351 23.502 16.5021C23.8127 15.9598 24.2467 15.5437 24.804 15.2539C25.3614 14.964 26.0146 14.8191 26.7639 14.8191C27.5131 14.8191 28.1664 14.964 28.7237 15.2539C29.281 15.5437 29.7105 15.9598 30.012 16.5021C30.3226 17.0351 30.478 17.6662 30.478 18.3955C30.478 19.1248 30.3226 19.7606 30.012 20.3029C29.7105 20.8453 29.281 21.266 28.7237 21.5652C28.1664 21.8551 27.5131 22 26.7639 22ZM26.7639 20.1346C27.6319 20.1346 28.0658 19.5549 28.0658 18.3955C28.0658 17.2361 27.6319 16.6564 26.7639 16.6564C25.8959 16.6564 25.4619 17.2361 25.4619 18.3955C25.4619 19.5549 25.8959 20.1346 26.7639 20.1346Z" fill="#06DAF7"/>
<path d="M37.6574 20.0785C37.8858 20.3123 38 20.5788 38 20.878C38 21.1678 37.8904 21.425 37.6711 21.6494C37.4518 21.8738 37.196 21.986 36.9036 21.986C36.6021 21.986 36.3325 21.8597 36.095 21.6073L34.4915 19.8962L32.9017 21.6073C32.6641 21.8597 32.3946 21.986 32.093 21.986C31.8007 21.986 31.5448 21.8738 31.3256 21.6494C31.1063 21.425 30.9966 21.1678 30.9966 20.878C30.9966 20.5788 31.1108 20.3123 31.3393 20.0785L33.0387 18.3394L31.4763 16.7686C31.2479 16.5348 31.1337 16.2684 31.1337 15.9691C31.1337 15.6699 31.2388 15.4081 31.4489 15.1837C31.6682 14.9593 31.924 14.8471 32.2164 14.8471C32.527 14.8471 32.7966 14.978 33.025 15.2398L34.4915 16.7686L35.9716 15.2398C36.2092 14.9874 36.4787 14.8611 36.7802 14.8611C37.0726 14.8611 37.3239 14.9734 37.534 15.1978C37.7533 15.4128 37.8629 15.6653 37.8629 15.9551C37.8629 16.2543 37.7487 16.5255 37.5203 16.7686L35.9579 18.3394L37.6574 20.0785Z" fill="#06DAF7"/>
<path d="M9.591 22.108C10.3875 22.108 11.049 21.622 11.3055 20.9065L13.047 16.06C13.0875 15.9385 13.1145 15.8035 13.1145 15.6685C13.1145 15.0475 12.615 14.5345 11.9805 14.5345C11.4675 14.5345 11.0355 14.8855 10.9005 15.3445L10.0635 18.139C9.9555 18.5035 9.861 18.868 9.807 19.1515C9.7665 19.3135 9.7395 19.4755 9.7125 19.6375H9.6315C9.618 19.4755 9.591 19.3135 9.5505 19.1515C9.4965 18.868 9.4155 18.49 9.3075 18.1255L8.4975 15.412C8.349 14.899 7.8765 14.5345 7.323 14.5345C6.648 14.5345 6.0945 15.088 6.0945 15.763C6.0945 15.898 6.135 16.033 6.1755 16.168L7.8765 20.9065C8.133 21.622 8.7945 22.108 9.591 22.108Z" fill="#06DAF7"/>
</svg>
