<svg width="95" height="92" viewBox="0 0 95 92" fill="none" xmlns="http://www.w3.org/2000/svg">
<path fill-rule="evenodd" clip-rule="evenodd" d="M81.2222 1H39.7828C24.7517 1 16 9.01 16 22.735V69.22C16 83.17 24.7517 91 39.7828 91H81.2222C96.4956 91 105 83.17 105 69.22V22.735C105 9.01 96.4956 1 81.2222 1ZM77.2702 73H29.7298C27.1163 73 25 70.9821 25 68.5029C25 66.0237 27.1163 64 29.7298 64H77.2702C79.8777 64 82 66.0237 82 68.5029C82 70.9821 79.8777 73 77.2702 73ZM91 73C93.4853 73 95.5 70.9853 95.5 68.5C95.5 66.0147 93.4853 64 91 64C88.5147 64 86.5 66.0147 86.5 68.5C86.5 70.9853 88.5147 73 91 73Z" fill="#F7F8FB"/>
<path d="M41.5858 38.6978C42.8604 39.0975 43.8369 39.7707 44.5153 40.7174C45.1937 41.6431 45.5329 42.7896 45.5329 44.1571C45.5329 45.3773 45.2143 46.4502 44.577 47.3759C43.9602 48.2805 43.066 48.9853 41.8942 49.4902C40.7429 49.9951 39.3861 50.2475 37.8237 50.2475H29.6211C28.7783 50.2475 28.1307 50.0161 27.6784 49.5533C27.2261 49.0905 27 48.4278 27 47.5652V30.6823C27 29.8198 27.2261 29.1571 27.6784 28.6943C28.1307 28.2314 28.7783 28 29.6211 28H37.5153C39.7973 28 41.6064 28.5259 42.9426 29.5778C44.2994 30.6087 44.9778 32.0077 44.9778 33.7749C44.9778 34.9109 44.6797 35.9208 44.0836 36.8043C43.4874 37.6669 42.6548 38.298 41.5858 38.6978ZM32.5198 36.7412H36.5594C37.6284 36.7412 38.4096 36.5729 38.903 36.2363C39.3964 35.8997 39.6431 35.3633 39.6431 34.6269C39.6431 33.8485 39.3964 33.2805 38.903 32.9229C38.4096 32.5652 37.6284 32.3864 36.5594 32.3864H32.5198V36.7412ZM37.1145 45.8612C38.2451 45.8612 39.0469 45.6823 39.5197 45.3247C40.0131 44.946 40.2598 44.3359 40.2598 43.4944C40.2598 42.6529 40.0131 42.0533 39.5197 41.6957C39.0469 41.317 38.2451 41.1276 37.1145 41.1276H32.5198V45.8612H37.1145Z" fill="#F7F8FB"/>
<path d="M55.7187 50.5C54.0535 50.5 52.5836 50.1739 51.309 49.5217C50.055 48.8485 49.0785 47.9018 48.3795 46.6816C47.7011 45.4614 47.3619 44.0309 47.3619 42.3899C47.3619 40.749 47.7011 39.3289 48.3795 38.1297C49.0785 36.9095 50.055 35.9734 51.309 35.3212C52.563 34.669 54.0329 34.3429 55.7187 34.3429C57.4044 34.3429 58.8743 34.669 60.1283 35.3212C61.3824 35.9734 62.3486 36.9095 63.027 38.1297C63.7259 39.3289 64.0754 40.749 64.0754 42.3899C64.0754 44.0309 63.7259 45.4614 63.027 46.6816C62.3486 47.9018 61.3824 48.8485 60.1283 49.5217C58.8743 50.1739 57.4044 50.5 55.7187 50.5ZM55.7187 46.3029C57.6717 46.3029 58.6482 44.9986 58.6482 42.3899C58.6482 39.7812 57.6717 38.4769 55.7187 38.4769C53.7657 38.4769 52.7892 39.7812 52.7892 42.3899C52.7892 44.9986 53.7657 46.3029 55.7187 46.3029Z" fill="#F7F8FB"/>
<path d="M80.2291 46.1767C80.743 46.7027 81 47.3022 81 47.9755C81 48.6276 80.7533 49.2062 80.2599 49.7111C79.7665 50.216 79.1909 50.4684 78.5331 50.4684C77.8547 50.4684 77.2482 50.1844 76.7137 49.6164L73.1058 45.7665L69.5287 49.6164C68.9942 50.1844 68.3878 50.4684 67.7094 50.4684C67.0515 50.4684 66.4759 50.216 65.9825 49.7111C65.4891 49.2062 65.2424 48.6276 65.2424 47.9755C65.2424 47.3022 65.4994 46.7027 66.0133 46.1767L69.8371 42.2637L66.3217 38.7293C65.8078 38.2034 65.5508 37.6038 65.5508 36.9306C65.5508 36.2574 65.7872 35.6683 66.26 35.1634C66.7534 34.6585 67.329 34.406 67.9869 34.406C68.6858 34.406 69.2923 34.7006 69.8062 35.2896L73.1058 38.7293L76.4362 35.2896C76.9707 34.7216 77.5771 34.4376 78.2555 34.4376C78.9134 34.4376 79.4787 34.69 79.9515 35.195C80.4449 35.6788 80.6916 36.2468 80.6916 36.899C80.6916 37.5722 80.4347 38.1823 79.9207 38.7293L76.4053 42.2637L80.2291 46.1767Z" fill="#F7F8FB"/>
</svg>
