<svg width="40" height="30" viewBox="0 0 40 30" fill="none" xmlns="http://www.w3.org/2000/svg">
<path d="M38.6621 4.88501C37.8241 4.35709 36.7941 4.31039 35.9161 4.75709L32.952 6.25354C31.856 6.80582 31.176 7.92257 31.176 9.16521V20.8322C31.176 22.0749 31.856 23.1896 32.952 23.7459L35.9141 25.2403C36.3161 25.4474 36.7461 25.5469 37.1761 25.5469C37.6921 25.5469 38.2041 25.4007 38.6621 25.1145C39.5001 24.5886 40.0001 23.6769 40.0001 22.6779V7.32359C40.0001 6.3246 39.5001 5.41293 38.6621 4.88501Z" fill="#06DAF7"/>
<path d="M19.8102 30H8.22608C3.38203 30 0 26.6599 0 21.8782V8.12183C0 3.33807 3.38203 0 8.22608 0H19.8102C24.6542 0 28.0363 3.33807 28.0363 8.12183V21.8782C28.0363 26.6599 24.6542 30 19.8102 30Z" fill="#374FA2"/>
</svg>
