<svg width="85" height="92" viewBox="0 0 85 92" fill="none" xmlns="http://www.w3.org/2000/svg">
<g opacity="0.04">
<path d="M95.9894 25.4914C94.1039 24.3036 91.7864 24.1985 89.8109 25.2036L83.1418 28.5706C80.6758 29.8132 79.1458 32.3259 79.1458 35.1219V61.3726C79.1458 64.1686 80.6758 66.6767 83.1418 67.9285L89.8064 71.2909C90.7109 71.7569 91.6784 71.9807 92.6459 71.9807C93.8069 71.9807 94.9589 71.6518 95.9894 71.0076C97.8749 69.8244 98.9999 67.7731 98.9999 65.5254V30.9782C98.9999 28.7305 97.8749 26.6792 95.9894 25.4914" fill="#374FA2"/>
<path d="M53.5729 82H27.5087C16.6096 82 9 74.4848 9 63.7259V32.7741C9 22.0107 16.6096 14.5 27.5087 14.5H53.5729C64.4721 14.5 72.0816 22.0107 72.0816 32.7741V63.7259C72.0816 74.4848 64.4721 82 53.5729 82" fill="#374FA2"/>
</g>
</svg>
